<?xml version="1.0" encoding="UTF-8"?>
<svg width="135px" height="24px" viewBox="0 0 135 24" version="1.1" xmlns="http://www.w3.org/2000/svg" xmlns:xlink="http://www.w3.org/1999/xlink">
    <title>编组 4</title>
    <g id="控件" stroke="none" stroke-width="1" fill="none" fill-rule="evenodd">
        <g id="logo" transform="translate(-20.000000, -18.000000)">
            <g id="编组-4" transform="translate(20.000000, 18.000000)">
                <path d="M131.153751,2.18181818 C132.103594,3.91623575 133.409528,5.39422679 135,6.52599607 C134.860329,6.52329101 134.65938,6.52035334 134.399941,6.51894693 L133.755486,6.5189198 C130.046934,6.53717138 119.678138,6.88444175 106.214335,9.81818182 L106.214335,9.81818182 L106.232614,9.80985305 C106.772813,9.56431287 119.193783,3.95874727 131.153751,2.18181818 Z M125.813946,0 C126.560469,0.727732742 127.412835,1.36704636 128.357154,1.90325781 C123.577892,2.69533914 118.861836,4.1395717 115.071463,5.45454545 C116.743141,4.25912207 121.927751,1.15105335 125.813946,0 Z M135,10.9090909 L133.010462,22.3970004 C132.85715,23.2823755 132.027977,24 131.158474,24 L131.158474,24 L104,24 L104.231421,22.6642716 C104.308034,22.2215393 104.72262,21.862727 105.157372,21.862727 L105.157372,21.862727 L127.986203,21.862727 C128.710848,21.862727 129.401766,21.2647066 129.529541,20.526909 L129.529541,20.526909 L131.056412,11.7105459 C131.133113,11.2679032 131.547699,10.9090909 131.982451,10.9090909 L131.982451,10.9090909 L135,10.9090909 Z M124.344154,10.9090909 L123.620373,14.329218 L124.973,14.329 L125.507115,11.6166734 C125.577585,11.2585153 125.933025,10.9624145 126.3278,10.9155516 L126.436257,10.9090909 L129.464295,10.9090909 L127.885771,18.928702 C127.808806,19.319499 127.392791,19.6363636 126.956541,19.6363636 L126.956541,19.6363636 L123.92859,19.6363636 L124.625,16.098 L123.246085,16.0982929 L122.64713,18.9287812 C122.564388,19.319499 122.117143,19.6363636 121.648143,19.6363636 L121.648143,19.6363636 L118.392885,19.6363636 L120.089909,11.6167525 C120.172557,11.2259555 120.619802,10.9090909 121.088896,10.9090909 L121.088896,10.9090909 L124.344154,10.9090909 Z M118.392885,10.9090909 L118.158013,12.0884478 C118.08014,12.4792448 117.659211,12.7961094 117.217809,12.7961094 L117.217809,12.7961094 L110.024656,12.7961094 C109.583253,12.7961094 109.162325,13.1128949 109.084452,13.5036919 L109.084452,13.5036919 L108.238929,17.7493451 L112.368282,17.7493451 C112.809685,17.7493451 113.230613,17.4325597 113.308487,17.0417626 L113.308487,17.0417626 L113.49642,16.0982929 L110.83227,16.0982929 L111.090656,14.8009924 C111.142512,14.5404083 111.423161,14.329218 111.717399,14.329218 L111.717399,14.329218 L117.711693,14.329218 L116.842657,18.6928148 C116.738855,19.2139039 116.177648,19.6363636 115.589081,19.6363636 L115.589081,19.6363636 L104.000053,19.6363636 L105.503343,12.0884478 C105.633072,11.4371458 106.33456,10.9090909 107.07029,10.9090909 L107.07029,10.9090909 L118.392885,10.9090909 Z M22.2084464,6.79335251 C21.0175417,4.96695376 18.9746838,4.61028257 17.5924939,4.57783825 C16.3769073,4.54928725 11.1045423,4.54409616 8.03376584,4.54193321 C1.98838737,4.53803989 5.44556424,4.53998655 0,4.53998655 L0,7.47641353 C6.46603571,7.47641353 14.1402109,7.46127285 17.4999366,7.51361635 C18.099538,7.52270076 18.6938201,7.58412866 19.1655435,8.00936551 C19.6051377,8.40561877 19.7600383,9.02919854 19.5638593,9.57166752 C19.2472493,10.4476641 18.3712524,10.6652573 17.4999366,10.6786676 C16.1679617,10.6996483 12.5092864,10.7076512 9.778738,10.7111119 C3.08375582,10.7197637 5.98324802,10.7156541 0,10.7156541 L0,13.6429967 C6.46114187,13.6429967 14.1529774,13.630019 17.4999366,13.6797669 C18.5440261,13.6953402 19.6470545,14.0647728 19.6470545,15.24726 C19.6470545,16.4297472 18.5440261,16.8177813 17.4999366,16.8335708 C14.1608501,16.8835351 6.46603571,16.8701248 0,16.8701248 L0,19.8041725 C6.48582383,19.8041725 14.9738654,19.8275324 17.5924939,19.7663208 C18.974471,19.7336602 21.0179673,19.3774216 22.2086591,17.5508065 C23.3257307,15.8368814 23.0523141,13.6038472 21.5854396,12.1721877 C23.053378,10.7392303 23.3267946,8.5085754 22.2084464,6.79335251 M74.9945456,6.30478436 C73.0210525,4.86555446 70.8777645,4.66180415 69.1400268,4.62070801 C67.4280348,4.58047706 64.8464293,4.56187565 62.5629222,4.55235865 C56.9956504,4.53008022 60.3430351,4.54002981 55.0391793,4.54002981 L55.0391793,7.48489231 C60.6828376,7.48489231 64.6411009,7.43752361 68.9989566,7.56232608 C70.2794397,7.59888001 71.6520547,7.73601133 72.8882806,8.60811456 C74.0591843,9.43479576 74.7532581,10.7509536 74.7532581,12.1720146 C74.7532581,13.5930757 74.077483,14.9118291 72.9065793,15.738294 C71.670779,16.6106135 70.298164,16.7477448 69.0178936,16.7840824 C64.6598251,16.9088849 60.7017746,16.8615162 55.0581164,16.8615162 L55.0391793,19.8042158 C60.7164561,19.8042158 64.7974909,19.8258453 69.1400268,19.7233213 C70.8777645,19.6822251 73.0210525,19.4786911 74.9945456,18.0392449 C76.8665447,16.6742044 78,14.529635 78,12.1720146 C78,9.81439427 76.8665447,7.67004121 74.9945456,6.30478436 M31.7108315,11.1319364 C30.1988486,11.1025202 29.7175503,10.6004984 29.7066987,9.06869409 C29.6966983,7.65433816 29.7030816,5.97675068 29.7030816,4.54011633 L26.3693145,4.54011633 C26.3693145,5.99232395 26.3418665,8.93350943 26.3976136,10.3539216 C26.5065547,13.1157982 27.3987225,13.9755726 30.1735283,14.0718241 C32.0972319,14.1382268 33.6260241,14.1152994 36.2867821,14.1137854 L36.2867821,11.1552963 C34.1545585,11.1557289 33.285796,11.1615688 31.7108315,11.1319364 M46.2332724,11.1319364 C45.5098355,11.1459956 43.6099628,11.1531333 42.0462754,11.156594 L42.0320194,11.1585407 C40.434288,11.1574592 38.7305943,11.1555126 37.7314003,11.1555126 L37.7314003,19.8043023 L41.6505129,19.8043023 L41.6505129,14.1133528 C41.7696672,14.1133528 41.898822,14.1133528 42.0320194,14.1135691 L42.0462754,14.1137854 L42.0462754,14.1172461 C44.0853033,14.1159483 46.6332904,14.1075128 47.5954613,14.077664 C50.5404875,13.9863874 51.4390386,13.1419699 51.5464902,10.3539216 C51.5605334,9.98102828 51.56947,9.51015309 51.5750021,8.99277439 L51.5750021,4.54011633 L48.2412351,4.54011633 C48.2412351,6.01330461 48.2476183,7.6670996 48.2371923,9.12211906 C48.226128,10.6130436 47.7486597,11.1023039 46.2332724,11.1319364 Z" id="形状结合" fill="#686D70"></path>
                <polygon id="直线" fill="#DEDEDE" fill-rule="nonzero" opacity="0.699967884" points="92 7 92 17 91 17 91 7"></polygon>
            </g>
        </g>
    </g>
</svg>